<svg width="229" height="200" viewBox="0 0 229 200" fill="none" xmlns="http://www.w3.org/2000/svg">
<g clip-path="url(#clip0_1381_13570)">
<path fill-rule="evenodd" clip-rule="evenodd" d="M8.34108 85.0611C8.34108 85.0611 115.145 113.298 122.488 0C122.488 0 133.394 36.6044 120.938 72.7944C120.539 73.7708 111.752 95.0276 97.7121 109.133C78.8227 127.039 48.3904 140.573 0 142.826C0 142.826 22.7601 121.986 8.34108 85.0611ZM58.2637 16.5712C71.2082 16.5715 81.7009 27.1 81.7009 40.0879C81.7009 53.0756 71.2082 63.6041 58.2637 63.6041C45.3199 63.6041 34.8269 53.0756 34.8269 40.0879C34.8269 27.1 45.3199 16.5712 58.2637 16.5712Z" fill="white"/>
<path fill-rule="evenodd" clip-rule="evenodd" d="M120.938 72.7944C118.864 78.8208 116.145 84.8359 112.616 90.6687C136.854 164.375 220.657 142.236 220.657 142.236C206.24 179.161 229 200 229 200C130.345 195.407 106.28 143.947 102.629 104.099C101.085 105.811 99.4459 107.49 97.7119 109.133C111.751 95.0279 120.539 73.7711 120.938 72.7947V72.7944ZM170.736 73.7461C157.792 73.7461 147.299 84.2745 147.299 97.2622C147.299 110.25 157.792 120.779 170.736 120.779C183.68 120.779 194.172 110.25 194.172 97.2622C194.172 84.2745 183.68 73.7461 170.736 73.7461Z" fill="white"/>
</g>
<defs>
<clipPath id="clip0_1381_13570">
<rect width="229" height="200" fill="white"/>
</clipPath>
</defs>
</svg>
